<svg width="512" height="512" viewBox="0 0 512 512" xmlns="http://www.w3.org/2000/svg">
  <defs>
    <linearGradient id="grad1" x1="0%" y1="0%" x2="100%" y2="100%">
      <stop offset="0%" style="stop-color:#4F46E5;stop-opacity:1" />
      <stop offset="100%" style="stop-color:#7C3AED;stop-opacity:1" />
    </linearGradient>
  </defs>
  
  <!-- 背景圆形 -->
  <circle cx="256" cy="256" r="240" fill="url(#grad1)" stroke="#ffffff" stroke-width="8"/>
  
  <!-- 文档图标 -->
  <rect x="160" y="120" width="160" height="200" rx="8" fill="#ffffff" opacity="0.9"/>
  <rect x="160" y="120" width="160" height="40" rx="8" fill="#ffffff"/>
  
  <!-- 表格线条 -->
  <line x1="180" y1="180" x2="300" y2="180" stroke="#4F46E5" stroke-width="3"/>
  <line x1="180" y1="200" x2="300" y2="200" stroke="#4F46E5" stroke-width="3"/>
  <line x1="180" y1="220" x2="300" y2="220" stroke="#4F46E5" stroke-width="3"/>
  <line x1="180" y1="240" x2="300" y2="240" stroke="#4F46E5" stroke-width="3"/>
  
  <!-- 导入箭头 -->
  <path d="M 340 200 L 380 200 L 370 190 M 380 200 L 370 210" stroke="#10B981" stroke-width="6" fill="none" stroke-linecap="round"/>
  <circle cx="400" cy="200" r="20" fill="#10B981"/>
  <path d="M 390 200 L 400 190 L 410 200 L 400 210 Z" fill="#ffffff"/>
  
  <!-- 标题文字 -->
  <text x="256" y="380" text-anchor="middle" font-family="Arial, sans-serif" font-size="32" font-weight="bold" fill="#ffffff">导入</text>
  <text x="256" y="420" text-anchor="middle" font-family="Arial, sans-serif" font-size="24" fill="#ffffff" opacity="0.9">助手</text>
</svg> 